<mxfile host="app.diagrams.net" modified="2023-12-17T11:39:24.105Z" agent="Mozilla/5.0 (Windows NT 10.0; Win64; x64) AppleWebKit/537.36 (KHTML, like Gecko) Chrome/120.0.0.0 Safari/537.36" etag="u2pTtYeFB9VQSDPpDOJK" version="22.1.11" type="github" pages="2">
  <diagram name="Main_Truck" id="e7e014a7-5840-1c2e-5031-d8a46d1fe8dd">
    <mxGraphModel dx="662" dy="372" grid="1" gridSize="10" guides="1" tooltips="1" connect="1" arrows="1" fold="1" page="1" pageScale="1" pageWidth="1169" pageHeight="826" background="none" math="0" shadow="0">
      <root>
        <mxCell id="0" />
        <mxCell id="1" parent="0" />
        <mxCell id="Dd4q-uAnfHJ_tEVFZn8V-1" value="" style="ellipse;html=1;shape=startState;fillColor=#000000;strokeColor=#ff0000;" vertex="1" parent="1">
          <mxGeometry x="260" y="100" width="30" height="30" as="geometry" />
        </mxCell>
        <mxCell id="Dd4q-uAnfHJ_tEVFZn8V-2" value="" style="edgeStyle=orthogonalEdgeStyle;html=1;verticalAlign=bottom;endArrow=open;endSize=8;strokeColor=#ff0000;rounded=0;" edge="1" source="Dd4q-uAnfHJ_tEVFZn8V-1" parent="1">
          <mxGeometry relative="1" as="geometry">
            <mxPoint x="275" y="190" as="targetPoint" />
          </mxGeometry>
        </mxCell>
        <mxCell id="Dd4q-uAnfHJ_tEVFZn8V-4" value="Idle" style="html=1;whiteSpace=wrap;" vertex="1" parent="1">
          <mxGeometry x="220" y="190" width="110" height="50" as="geometry" />
        </mxCell>
        <mxCell id="Dd4q-uAnfHJ_tEVFZn8V-7" value="Form platoon" style="endArrow=open;endFill=1;endSize=12;html=1;rounded=0;" edge="1" parent="1">
          <mxGeometry y="36" width="160" relative="1" as="geometry">
            <mxPoint x="274.5" y="240" as="sourcePoint" />
            <mxPoint x="274.5" y="320" as="targetPoint" />
            <mxPoint as="offset" />
          </mxGeometry>
        </mxCell>
        <mxCell id="Dd4q-uAnfHJ_tEVFZn8V-8" value="Acceleration" style="html=1;whiteSpace=wrap;" vertex="1" parent="1">
          <mxGeometry x="220" y="320" width="110" height="50" as="geometry" />
        </mxCell>
        <mxCell id="Dd4q-uAnfHJ_tEVFZn8V-9" value="Adaptive Cruise Control" style="endArrow=open;endFill=1;endSize=12;html=1;rounded=0;" edge="1" parent="1">
          <mxGeometry y="66" width="160" relative="1" as="geometry">
            <mxPoint x="274.5" y="370" as="sourcePoint" />
            <mxPoint x="274.5" y="450" as="targetPoint" />
            <mxPoint as="offset" />
          </mxGeometry>
        </mxCell>
        <mxCell id="Dd4q-uAnfHJ_tEVFZn8V-10" value="Cruising" style="html=1;whiteSpace=wrap;" vertex="1" parent="1">
          <mxGeometry x="220" y="450" width="110" height="50" as="geometry" />
        </mxCell>
        <mxCell id="Dd4q-uAnfHJ_tEVFZn8V-11" value="Before Lane Change/&lt;br&gt;Emergency" style="endArrow=open;endFill=1;endSize=12;html=1;rounded=0;" edge="1" parent="1">
          <mxGeometry y="56" width="160" relative="1" as="geometry">
            <mxPoint x="274.5" y="500" as="sourcePoint" />
            <mxPoint x="274.5" y="580" as="targetPoint" />
            <mxPoint as="offset" />
          </mxGeometry>
        </mxCell>
        <mxCell id="Dd4q-uAnfHJ_tEVFZn8V-12" value="Deceleration" style="html=1;whiteSpace=wrap;" vertex="1" parent="1">
          <mxGeometry x="220" y="580" width="110" height="50" as="geometry" />
        </mxCell>
        <mxCell id="Dd4q-uAnfHJ_tEVFZn8V-13" value="" style="ellipse;html=1;shape=endState;fillColor=#000000;strokeColor=#ff0000;" vertex="1" parent="1">
          <mxGeometry x="260" y="690" width="30" height="30" as="geometry" />
        </mxCell>
        <mxCell id="Dd4q-uAnfHJ_tEVFZn8V-14" value="" style="endArrow=open;endFill=1;endSize=12;html=1;rounded=0;" edge="1" parent="1">
          <mxGeometry width="160" relative="1" as="geometry">
            <mxPoint x="274.5" y="630" as="sourcePoint" />
            <mxPoint x="275" y="690" as="targetPoint" />
          </mxGeometry>
        </mxCell>
        <mxCell id="Dd4q-uAnfHJ_tEVFZn8V-16" value="After Lane Change" style="endArrow=open;endFill=1;endSize=12;html=1;rounded=0;exitX=-0.006;exitY=0.594;exitDx=0;exitDy=0;exitPerimeter=0;" edge="1" parent="1" source="Dd4q-uAnfHJ_tEVFZn8V-12">
          <mxGeometry x="-0.027" y="50" width="160" relative="1" as="geometry">
            <mxPoint x="220" y="590" as="sourcePoint" />
            <mxPoint x="220" y="340" as="targetPoint" />
            <Array as="points">
              <mxPoint x="160" y="610" />
              <mxPoint x="160" y="340" />
            </Array>
            <mxPoint as="offset" />
          </mxGeometry>
        </mxCell>
        <mxCell id="Dd4q-uAnfHJ_tEVFZn8V-18" value="Emergency" style="endArrow=open;endFill=1;endSize=12;html=1;rounded=0;entryX=1;entryY=0.5;entryDx=0;entryDy=0;" edge="1" parent="1" target="Dd4q-uAnfHJ_tEVFZn8V-4">
          <mxGeometry x="-0.1846" y="30" width="160" relative="1" as="geometry">
            <mxPoint x="330" y="604.58" as="sourcePoint" />
            <mxPoint x="460" y="210" as="targetPoint" />
            <Array as="points">
              <mxPoint x="460" y="605" />
              <mxPoint x="460" y="215" />
            </Array>
            <mxPoint as="offset" />
          </mxGeometry>
        </mxCell>
      </root>
    </mxGraphModel>
  </diagram>
  <diagram id="2MtKIG-dXbb1Wr8E-rNM" name="Page-2">
    <mxGraphModel dx="794" dy="446" grid="1" gridSize="10" guides="1" tooltips="1" connect="1" arrows="1" fold="1" page="1" pageScale="1" pageWidth="850" pageHeight="1100" math="0" shadow="0">
      <root>
        <mxCell id="0" />
        <mxCell id="1" parent="0" />
      </root>
    </mxGraphModel>
  </diagram>
</mxfile>
